<?xml version="1.0" encoding="utf-8"?>
<!-- Generator: Adobe Illustrator 18.0.0, SVG Export Plug-In . SVG Version: 6.00 Build 0)  -->
<!DOCTYPE svg PUBLIC "-//W3C//DTD SVG 1.1//EN" "http://www.w3.org/Graphics/SVG/1.1/DTD/svg11.dtd">
<svg version="1.1" id="Layer_1" xmlns="http://www.w3.org/2000/svg" xmlns:xlink="http://www.w3.org/1999/xlink" x="0px" y="0px"
	 viewBox="0 0 612 160" enable-background="new 0 0 612 160" xml:space="preserve">
<g>
	   <defs>
            <style type="text/css">
            <![CDATA[@font-face {
                font-family: 'Myriad Pro Bold Condensed';
				src: url("/assets/MYRIADPRO-BOLDCOND.woff") format('woff');

            }
            ]]>
            </style>
        </defs>
	<text transform="matrix(1 0 0 1 10.7592 114.3115)" font-family="'Myriad Pro Bold Condensed'" font-size="114.07">INTERVENTI</text>
	<g>
		<g>
			<g>
				<path fill="#EA2127" d="M525.3,40.1c-8.2,17.1-18.6,15.6-18.8,15.6l0,0c0,0-10.3,1.6-18.5-15.6c-2-4.3-7.8-4.8-5,2.4
					c1.4,3.9,10.6,21.1,23.9,27.7l0,0l0,0l0,0l0,0c13.2-6.6,22.2-23.9,23.6-27.7C533.1,35.4,527.4,36,525.3,40.1z"/>
				<circle fill="#EA2127" cx="506.6" cy="46" r="6.8"/>
			</g>
			<g>
				<path d="M488,111.7c8.2-17.1,18.6-15.6,18.8-15.6l0,0c0,0,10.3-1.6,18.5,15.6c2,4.3,7.8,4.8,5-2.4c-1.4-3.9-10.6-21.1-23.9-27.7
					l0,0l0,0l0,0l0,0c-13.2,6.6-22.2,23.9-23.6,27.7C480.2,116.5,486,115.9,488,111.7z"/>
				<circle cx="506.7" cy="105.9" r="6.8"/>
			</g>
		</g>
		<g>
			<g>
				<path d="M542.5,94.5c-17.1-8.2-15.6-18.6-15.6-18.8l0,0c0,0-1.6-10.3,15.6-18.5c4.3-2,4.8-7.8-2.4-5
					c-3.9,1.4-21.1,10.6-27.7,23.9l0,0l0,0l0,0l0,0c6.6,13.2,23.9,22.2,27.7,23.6C547.2,102.3,546.7,96.6,542.5,94.5z"/>
				<circle cx="536.6" cy="75.9" r="6.8"/>
			</g>
			<g>
				<path d="M470.9,57.3c17.1,8.2,15.6,18.6,15.6,18.8l0,0c0,0,1.6,10.3-15.6,18.5c-4.3,2-4.8,7.8,2.4,5
					c3.9-1.4,21.1-10.6,27.7-23.9l0,0l0,0l0,0l0,0c-6.6-13.2-23.9-22.2-27.7-23.6C466.2,49.6,466.6,55.3,470.9,57.3z"/>
				<circle cx="476.8" cy="75.9" r="6.8"/>
			</g>
		</g>
	</g>
	<text transform="matrix(1 0 0 1 542.3954 114.3115)" font-family="'Myriad Pro Bold Condensed'" font-size="114.07">N</text>
</g>
</svg>
