<?xml version="1.0" encoding="utf-8"?>
<!-- Generator: Adobe Illustrator 18.0.0, SVG Export Plug-In . SVG Version: 6.00 Build 0)  -->
<!DOCTYPE svg PUBLIC "-//W3C//DTD SVG 1.1//EN" "http://www.w3.org/Graphics/SVG/1.1/DTD/svg11.dtd">
<svg version="1.1" id="Layer_1" xmlns="http://www.w3.org/2000/svg" xmlns:xlink="http://www.w3.org/1999/xlink" x="0px" y="0px"
	 viewBox="347.8 0 306.1 560" enable-background="new 347.8 0 306.1 560" xml:space="preserve">
<g>
	<g>
		<path fill="#CCCCCC" d="M567.5,26.9c8.2-6.9,11-22.5,11-22.5s-14.1-0.3-24,8.9c-10,9.5-7.7,23.8-7.7,23.8S558.3,34.6,567.5,26.9z"
			/>
		<path fill="#CCCCCC" d="M568.5,49.2c10.5,2,24.3-5.9,24.3-5.9s-8.7-11.3-22.2-13c-13.6-1.8-23.3,8.9-23.3,8.9
			S556.5,46.9,568.5,49.2z"/>
		<path fill="#CCCCCC" d="M528.1,41.8c7.4-10.2,6.1-28.9,6.1-28.9s-16.4,3.6-25.1,17.1c-8.7,13.5-2,29.4-2,29.4
			S519.4,53.3,528.1,41.8z"/>
		<path fill="#CCCCCC" d="M531.2,69.4c12.3,1.8,28.4-8.2,28.4-8.2s-10.8-12.8-26.9-14.3c-16.1-1.5-26.9,11.7-26.9,11.7
			S516.8,67.3,531.2,69.4z"/>
		<path fill="#CCCCCC" d="M487.4,67.3c5.9-14.3-1.3-36.3-1.3-36.3s-18.4,9.2-24.8,28.1s6.1,35.8,6.1,35.8S480.8,83.9,487.4,67.3z"/>
		<path fill="#CCCCCC" d="M498.9,98c14.6-2,29.2-18.4,29.2-18.4s-16.4-10.7-35-7.2c-18.7,3.6-26.6,22.2-26.6,22.2
			S482.1,100.3,498.9,98z"/>
		<path fill="#CCCCCC" d="M450.6,105.4c2.3-16.4-11-37.1-11-37.1s-16.6,14.3-18.4,35.5s15.6,35.3,15.6,35.3S447.8,124.4,450.6,105.4
			z"/>
		<path fill="#CCCCCC" d="M472.9,135.1c15.1-6.4,26.1-28.6,26.1-28.6s-21-6.6-39.9,2.8c-18.9,9.5-22,31.7-22,31.7
			S455.5,142.5,472.9,135.1z"/>
		<path fill="#CCCCCC" d="M423,153c-1.3-17.9-19.9-36.8-19.9-36.8s-14.3,18.9-11.5,41.9c2.8,22.8,24.5,34,24.5,34
			S424.3,173.4,423,153z"/>
		<path fill="#CCCCCC" d="M451.1,183.9c15.1-7.9,24.5-31.7,24.5-31.7s-22.2-5.4-41.2,5.9c-18.9,11.3-20.2,34.5-20.2,34.5
			S433.5,193.1,451.1,183.9z"/>
		<path fill="#CCCCCC" d="M409.2,214.9c-5.9-17.9-29.9-32.5-29.9-32.5s-10,23-1,45.8c8.9,22.8,34,28.4,34,28.4
			S415.8,235.6,409.2,214.9z"/>
		<path fill="#CCCCCC" d="M445.8,238.7c13-13.6,14.8-41.7,14.8-41.7s-25.1,2-40.9,20.5s-9.2,43.2-9.2,43.2S430.7,254.3,445.8,238.7z
			"/>
		<path fill="#CCCCCC" d="M409.2,282.6c-11.3-16.9-40.1-25.3-40.1-25.3s-3.8,26.6,11.8,47.6c15.3,21,43,19.7,43,19.7
			S421.7,302.1,409.2,282.6z"/>
		<path fill="#CCCCCC" d="M455.5,293.6c9.7-16.6,4.9-45,4.9-45s-24.3,7.9-35.8,29.9s1,45,1,45S444,312.6,455.5,293.6z"/>
		<path fill="#CCCCCC" d="M423,347.6c-16.1-12.3-46.3-10.5-46.3-10.5s5.4,26.3,27.1,40.9s47.3,4.1,47.3,4.1S441.4,361.6,423,347.6z"
			/>
		<path fill="#CCCCCC" d="M475.9,344.5c5.9-19.4-6.1-47.1-6.1-47.1s-23,14.1-29.2,39.6c-6.1,25.3,12.3,45.8,12.3,45.8
			S469.3,366.8,475.9,344.5z"/>
		<path fill="#CCCCCC" d="M458,405.9c-19.7-8.2-49.9,1.5-49.9,1.5s12.5,25.6,38.6,34.5c26.1,9.2,49.4-8.2,49.4-8.2
			S480.8,415.1,458,405.9z"/>
		<path fill="#CCCCCC" d="M514.3,389c2.8-21.2-14.6-47.8-14.6-47.8s-21.2,18.7-23.5,46.3c-2,27.4,20.7,45.5,20.7,45.5
			S511,413.3,514.3,389z"/>
		<path fill="#CCCCCC" d="M509.9,452.9c-23-3.6-52.4,14.8-52.4,14.8s19.9,23.5,49.9,26.3c30,2.8,49.9-21.7,49.9-21.7
			S536.5,457,509.9,452.9z"/>
		<path fill="#CCCCCC" d="M561.3,424.3c-2.8-23-28.4-46.3-28.4-46.3s-17.4,25.6-12,55c5.4,29.4,34.3,42.2,34.3,42.2
			S564.4,450.9,561.3,424.3z"/>
		<path fill="#E3E3E3" d="M578.5,4.4c0,0-14.1-0.3-24,8.9c-10,9.5-7.7,23.8-7.7,23.8L578.5,4.4z"/>
		<path fill="#CCCCCC" d="M605.3,30.5c9.5-1,19.2-11.3,19.2-11.3s-10.2-7.2-22.2-5.4c-12.3,2-17.6,13.6-17.6,13.6
			S594.6,31.5,605.3,30.5z"/>
		<path fill="#E3E3E3" d="M592.8,43.3c0,0-8.7-11.3-22.2-13c-13.6-1.8-23.3,8.9-23.3,8.9L592.8,43.3z"/>
		<path fill="#E3E3E3" d="M534,12.9c0,0-16.4,3.6-25.1,17.1c-8.7,13.5-2,29.4-2,29.4L534,12.9z"/>
		<path fill="#E3E3E3" d="M559.3,61.2c0,0-10.7-12.8-26.8-14.3s-26.8,11.8-26.8,11.8L559.3,61.2z"/>
		<path fill="#E3E3E3" d="M486.2,31.3c0,0-18.4,9.2-24.8,28.1s6.1,35.8,6.1,35.8L486.2,31.3z"/>
		<path fill="#E3E3E3" d="M528.1,79.6c0,0-16.4-10.7-35-7.2c-18.7,3.6-26.6,22.2-26.6,22.2L528.1,79.6z"/>
		<path fill="#E3E3E3" d="M439.6,68.4c0,0-16.6,14.3-18.4,35.5s15.6,35.3,15.6,35.3L439.6,68.4z"/>
		<path fill="#E3E3E3" d="M498.7,106.5c0,0-21-6.6-39.9,2.8c-18.9,9.5-22,31.7-22,31.7L498.7,106.5z"/>
		<path fill="#E3E3E3" d="M403.1,116.2c0,0-14.3,18.9-11.5,41.9c2.8,22.8,24.5,34,24.5,34L403.1,116.2z"/>
		<path fill="#E3E3E3" d="M475.7,152.2c0,0-22.2-5.4-41.2,5.9c-18.9,11.3-20.2,34.5-20.2,34.5L475.7,152.2z"/>
		<path fill="#E3E3E3" d="M379.3,182.4c0,0-10,23-1,45.8c8.9,22.8,34,28.4,34,28.4L379.3,182.4z"/>
		<path fill="#E3E3E3" d="M460.6,197c0,0-25.1,2-40.9,20.5s-9.2,43.2-9.2,43.2L460.6,197z"/>
		<path fill="#E3E3E3" d="M369,257.3c0,0-3.8,26.6,11.8,47.6c15.3,21,43,19.7,43,19.7L369,257.3z"/>
		<path fill="#E3E3E3" d="M460.3,248.6c0,0-24.3,7.9-35.8,29.9s1,45,1,45L460.3,248.6z"/>
		<path fill="#E3E3E3" d="M376.7,337.1c0,0,5.4,26.3,27.1,40.9s47.3,4.1,47.3,4.1L376.7,337.1z"/>
		<path fill="#E3E3E3" d="M470.1,297.5c0,0-23,14.1-29.2,39.6c-6.1,25.3,12.3,45.8,12.3,45.8L470.1,297.5z"/>
		<path fill="#E3E3E3" d="M408.2,407.4c0,0,12.5,25.6,38.6,34.5c26.1,9.2,49.4-8.2,49.4-8.2L408.2,407.4z"/>
		<path fill="#E3E3E3" d="M499.7,341.2c0,0-21.2,18.7-23.5,46.3c-2,27.4,20.7,45.5,20.7,45.5L499.7,341.2z"/>
		<path fill="#E3E3E3" d="M457.8,467.8c0,0,19.9,23.5,49.9,26.3c29.9,2.8,49.9-21.7,49.9-21.7L457.8,467.8z"/>
		<path fill="#E3E3E3" d="M532.7,378c0,0-17.4,25.6-12,55c5.4,29.4,34.3,42.2,34.3,42.2L532.7,378z"/>
		<path fill="#CCCCCC" d="M567,485.9c-23.3,1.3-48.3,25.1-48.3,25.1s24.3,19.2,54,15.9s44.5-31.2,44.5-31.2S593.8,484.4,567,485.9z"
			/>
		<path fill="#CCCCCC" d="M611.5,447.6c-7.4-22-37.1-39.9-37.1-39.9s-11.8,28.6-0.8,56.3c11.3,27.9,42.2,34.5,42.2,34.5
			S619.9,472.9,611.5,447.6z"/>
		<path fill="#E3E3E3" d="M518.6,510.7c0,0,24.3,19.2,54,15.9s44.5-31.2,44.5-31.2L518.6,510.7z"/>
		<path fill="#E3E3E3" d="M574.4,407.7c0,0-11.8,28.6-0.8,56.3c11.3,27.9,42.2,34.5,42.2,34.5L574.4,407.7z"/>
		<path fill="none" stroke="#CCCCCC" stroke-width="4" stroke-linecap="round" stroke-miterlimit="10" d="M604.6,533.5
			c0,0,8.2-0.5,5.6-10.2c-2.6-10-15.3-11.5-22.5-5.6c-8.7,7.2-10.2,25.6,5.9,35c12,7.2,38.1,1.8,39.4-23.5
			c1.5-33.2-49.1-36.8-100.2-69.8c-66.2-43.2-128.6-119.7-119.2-234c15-180.6,180.5-201.5,180.5-201.5"/>
		<path fill="#E3E3E3" d="M624.2,19c0,0-10.2-9.5-22.2-7.7c-12,2-17.4,13.6-17.4,13.6L624.2,19z"/>
	</g>
</g>
</svg>
