<?xml version="1.0" encoding="utf-8"?>
<!-- Generator: Adobe Illustrator 18.0.0, SVG Export Plug-In . SVG Version: 6.00 Build 0)  -->
<!DOCTYPE svg PUBLIC "-//W3C//DTD SVG 1.1//EN" "http://www.w3.org/Graphics/SVG/1.1/DTD/svg11.dtd">
<svg version="1.1" id="Layer_1" xmlns="http://www.w3.org/2000/svg" xmlns:xlink="http://www.w3.org/1999/xlink" x="0px" y="0px"
	 viewBox="306.1 0 306.1 560" enable-background="new 306.1 0 306.1 560" xml:space="preserve">
<g>
	<g>
		<path fill="#CCCCCC" d="M413.7,37.3c0,0,2.3-14.3-7.7-23.8c-10.2-9.2-24.3-8.9-24.3-8.9s2.6,15.6,10.7,22.5
			C401.9,34.7,413.7,37.3,413.7,37.3z"/>
		<path fill="#CCCCCC" d="M412.9,39.3c0,0-9.7-10.7-23.3-8.9c-13.6,1.8-22.2,13-22.2,13s13.8,7.9,24.3,5.9
			C403.4,47,412.9,39.3,412.9,39.3z"/>
		<path fill="#CCCCCC" d="M453.3,59.5c0,0,6.6-15.9-2-29.4C442.5,16.6,426.2,13,426.2,13s-1.3,18.7,6.1,28.9
			C440.5,53.4,453.3,59.5,453.3,59.5z"/>
		<path fill="#CCCCCC" d="M454.6,59c0,0-10.7-13.3-26.8-11.8c-16.1,1.5-26.8,14.3-26.8,14.3s15.9,10,28.4,8.2
			C443.3,67.5,454.6,59,454.6,59z"/>
		<path fill="#CCCCCC" d="M492.7,95.1c0,0,12.8-16.9,6.1-35.8C492.4,40.4,474,31.1,474,31.1s-7.2,22-1.3,36.3
			C479.4,84.1,492.7,95.1,492.7,95.1z"/>
		<path fill="#CCCCCC" d="M493.4,94.6c0,0-7.9-18.4-26.6-22.2c-18.7-3.6-35,7.2-35,7.2s14.6,16.4,29.2,18.4
			C477.8,100.4,493.4,94.6,493.4,94.6z"/>
		<path fill="#CCCCCC" d="M523.1,139.3c0,0,17.4-14.1,15.6-35.3c-1.8-21.2-18.4-35.5-18.4-35.5s-13.3,20.7-11,37.1
			C512.1,124.5,523.1,139.3,523.1,139.3z"/>
		<path fill="#CCCCCC" d="M523.1,141.1c0,0-2.8-22.2-22-31.7c-18.9-9.5-39.9-2.8-39.9-2.8s10.7,22,26.1,28.6
			C504.7,142.6,523.1,141.1,523.1,141.1z"/>
		<path fill="#CCCCCC" d="M544.1,192c0,0,21.7-11,24.5-34c2.8-22.8-11.5-41.9-11.5-41.9s-18.7,19.2-19.9,36.8
			C535.9,173.6,544.1,192,544.1,192z"/>
		<path fill="#CCCCCC" d="M545.6,193c0,0-1.3-23.3-20.2-34.5c-18.9-11.3-41.2-5.9-41.2-5.9s9.5,23.8,24.5,31.7
			C526.4,193.3,545.6,193,545.6,193z"/>
		<path fill="#CCCCCC" d="M547.9,256.7c0,0,25.1-5.6,34-28.4s-1-45.8-1-45.8s-24,14.6-29.9,32.7
			C544.1,235.7,547.9,256.7,547.9,256.7z"/>
		<path fill="#CCCCCC" d="M549.7,260.8c0,0,6.6-24.8-9.2-43.2c-15.9-18.4-40.9-20.5-40.9-20.5s1.8,28.1,14.8,41.7
			C529.5,254.4,549.7,260.8,549.7,260.8z"/>
		<path fill="#CCCCCC" d="M536.4,324.7c0,0,27.4,1.3,43-19.7c15.3-21,11.8-47.6,11.8-47.6s-28.9,8.4-39.9,25.3
			C538.4,302.2,536.4,324.7,536.4,324.7z"/>
		<path fill="#CCCCCC" d="M534.6,323.9c0,0,12.5-23,1-45c-11.5-22-35.8-29.9-35.8-29.9s-4.9,28.4,4.9,45
			C515.9,312.7,534.6,323.9,534.6,323.9z"/>
		<path fill="#CCCCCC" d="M509,382.5c0,0,25.6,10.5,47.3-4.1c21.7-14.6,27.1-40.9,27.1-40.9s-30.2-1.8-46.3,10.5
			C518.5,361.8,509,382.5,509,382.5z"/>
		<path fill="#CCCCCC" d="M507,383c0,0,18.4-20.5,12.3-45.8c-6.1-25.3-29.2-39.6-29.2-39.6s-12,27.6-6.1,47.1
			C490.9,366.9,507,383,507,383z"/>
		<path fill="#CCCCCC" d="M464,433.9c0,0,23.3,17.4,49.4,8.2c26.1-9.2,38.6-34.5,38.6-34.5s-30.4-9.7-49.9-1.5
			C479.4,415.2,464,433.9,464,433.9z"/>
		<path fill="#CCCCCC" d="M463,432.9c0,0,22.8-18.2,20.7-45.5c-2-27.4-23.3-46-23.3-46s-17.4,26.8-14.6,47.8
			C449.2,413.4,463,432.9,463,432.9z"/>
		<path fill="#CCCCCC" d="M402.7,472.8c0,0,19.9,24.5,49.9,21.7c29.9-2.8,49.9-26.3,49.9-26.3S473,449.7,450,453.3
			C423.6,457.2,402.7,472.8,402.7,472.8z"/>
		<path fill="#CCCCCC" d="M405,475.3c0,0,28.9-12.8,34.3-42.2c5.4-29.4-12-55-12-55s-25.6,23.3-28.4,46.3
			C395.5,451,405,475.3,405,475.3z"/>
		<path fill="#E3E3E3" d="M413.7,37.3c0,0,2.3-14.3-7.7-23.8c-10.2-9.2-24.3-8.9-24.3-8.9L413.7,37.3z"/>
		<path fill="#CCCCCC" d="M375.6,27.6c0,0-5.4-11.8-17.4-13.6c-12-2-22.2,5.4-22.2,5.4s9.7,10.2,19.2,11.3
			C365.6,31.7,375.6,27.6,375.6,27.6z"/>
		<path fill="#E3E3E3" d="M412.9,39.3c0,0-9.7-10.7-23.3-8.9c-13.6,1.8-22.2,13-22.2,13L412.9,39.3z"/>
		<path fill="#E3E3E3" d="M453.3,59.5c0,0,6.6-15.9-2-29.4C442.5,16.6,426.2,13,426.2,13L453.3,59.5z"/>
		<path fill="#E3E3E3" d="M454.6,59c0,0-10.7-13.3-26.8-11.8c-16.1,1.5-26.8,14.3-26.8,14.3L454.6,59z"/>
		<path fill="#E3E3E3" d="M492.7,95.1c0,0,12.8-16.9,6.1-35.8C492.4,40.4,474,31.1,474,31.1L492.7,95.1z"/>
		<path fill="#E3E3E3" d="M493.4,94.6c0,0-7.9-18.4-26.6-22.2c-18.7-3.6-35,7.2-35,7.2L493.4,94.6z"/>
		<path fill="#E3E3E3" d="M523.1,139.3c0,0,17.4-14.1,15.6-35.3c-1.8-21.2-18.4-35.5-18.4-35.5L523.1,139.3z"/>
		<path fill="#E3E3E3" d="M523.1,141.1c0,0-2.8-22.2-22-31.7c-18.9-9.5-39.9-2.8-39.9-2.8L523.1,141.1z"/>
		<path fill="#E3E3E3" d="M544.1,192c0,0,21.7-11,24.5-34c2.8-22.8-11.5-41.9-11.5-41.9L544.1,192z"/>
		<path fill="#E3E3E3" d="M545.6,193c0,0-1.3-23.3-20.2-34.5c-18.9-11.3-41.2-5.9-41.2-5.9L545.6,193z"/>
		<path fill="#E3E3E3" d="M547.9,256.7c0,0,25.1-5.6,34-28.4s-1-45.8-1-45.8L547.9,256.7z"/>
		<path fill="#E3E3E3" d="M549.7,260.8c0,0,6.6-24.8-9.2-43.2c-15.9-18.4-40.9-20.5-40.9-20.5L549.7,260.8z"/>
		<path fill="#E3E3E3" d="M536.4,324.7c0,0,27.4,1.3,43-19.7c15.3-21,11.8-47.6,11.8-47.6L536.4,324.7z"/>
		<path fill="#E3E3E3" d="M534.6,323.9c0,0,12.5-23,1-45c-11.5-22-35.8-29.9-35.8-29.9L534.6,323.9z"/>
		<path fill="#E3E3E3" d="M509,382.5c0,0,25.6,10.5,47.3-4.1c21.7-14.6,27.1-40.9,27.1-40.9L509,382.5z"/>
		<path fill="#E3E3E3" d="M507,383c0,0,18.4-20.5,12.3-45.8c-6.1-25.3-29.2-39.6-29.2-39.6L507,383z"/>
		<path fill="#E3E3E3" d="M464,433.9c0,0,23.3,17.4,49.4,8.2c26.1-9.2,38.6-34.5,38.6-34.5L464,433.9z"/>
		<path fill="#E3E3E3" d="M463,432.9c0,0,22.8-18.2,20.7-45.5c-2-27.4-23.3-46-23.3-46L463,432.9z"/>
		<path fill="#E3E3E3" d="M402.7,472.8c0,0,19.9,24.5,49.9,21.7c29.9-2.8,49.9-26.3,49.9-26.3L402.7,472.8z"/>
		<path fill="#E3E3E3" d="M405,475.3c0,0,28.9-12.8,34.3-42.2c5.4-29.4-12-55-12-55L405,475.3z"/>
		<path fill="#CCCCCC" d="M342.8,495.8c0,0,14.8,27.9,44.5,31.2c29.7,3.3,54-15.9,54-15.9s-25.1-23.8-48.3-25.1
			C366.3,484.5,342.8,495.8,342.8,495.8z"/>
		<path fill="#CCCCCC" d="M344.4,498.8c0,0,30.9-6.6,42.2-34.5c11.3-27.9-0.8-56.3-0.8-56.3s-29.7,17.9-37.1,39.9
			C340,473,344.4,498.8,344.4,498.8z"/>
		<path fill="#E3E3E3" d="M342.8,495.8c0,0,14.8,27.9,44.5,31.2c29.7,3.3,54-15.9,54-15.9L342.8,495.8z"/>
		<path fill="#E3E3E3" d="M344.4,498.8c0,0,30.9-6.6,42.2-34.5c11.3-27.9-0.8-56.3-0.8-56.3L344.4,498.8z"/>
		<path fill="none" stroke="#CCCCCC" stroke-width="4" stroke-linecap="round" stroke-miterlimit="10" d="M366.1,24
			c0,0,165.4,21,180.5,201.5c9.5,114.3-52.9,190.8-119.4,233.7c-51.1,33-101.8,36.6-100.2,69.8c1.3,25.3,27.4,30.7,39.4,23.5
			c16.1-9.5,14.8-27.9,5.9-35c-7.2-5.6-19.7-4.3-22.2,5.6c-2.6,9.7,5.6,10.2,5.6,10.2"/>
		<path fill="#E3E3E3" d="M375.6,25c0,0-5.4-11.8-17.4-13.6c-12-2-22.2,7.7-22.2,7.7L375.6,25z"/>
	</g>
</g>
</svg>
